<svg id="Layer_3" enable-background="new 0 0 64 64" height="512" viewBox="0 0 64 64" width="512" xmlns="http://www.w3.org/2000/svg"><path d="m62 27h-3v-7c0-.552-.448-1-1-1h-12c-.552 0-1 .448-1 1v7h-3c-.552 0-1 .448-1 1v13h-9c-.552 0-1 .448-1 1v5h-3.367l-1.08-8.64c1.519-.42 2.964-1.031 4.302-1.849l2.459 2.459c.188.188.442.293.707.293s.52-.105.707-.293l4.243-4.243c.188-.188.293-.442.293-.707s-.105-.52-.293-.707l-2.459-2.459c.92-1.504 1.592-3.131 2.005-4.855h3.483c.552 0 1-.448 1-1v-6c0-.552-.448-1-1-1h-3.483c-.414-1.724-1.085-3.351-2.005-4.855l2.459-2.459c.188-.188.293-.442.293-.707s-.105-.52-.293-.707l-4.243-4.243c-.375-.375-1.039-.375-1.414 0l-2.459 2.459c-1.504-.918-3.131-1.59-4.855-2.004v-3.483c0-.552-.448-1-1-1h-6c-.552 0-1 .448-1 1v3.483c-1.724.414-3.351 1.085-4.855 2.005l-2.459-2.459c-.188-.188-.442-.293-.707-.293s-.52.105-.707.293l-4.243 4.243c-.187.187-.293.442-.293.707s.105.52.293.707l2.459 2.459c-.919 1.504-1.591 3.131-2.005 4.855h-3.483c-.552 0-1 .448-1 1v6c0 .552.448 1 1 1h3.483c.262 1.09.645 2.144 1.114 3.157l-3.48 27.843h-1.117c-.552 0-1 .448-1 1v4c0 .552.448 1 1 1h60c.552 0 1-.448 1-1v-4-10-20c0-.552-.448-1-1-1zm-5 0h-2v-6h2zm-6 0v-6h2v6zm-4-6h2v6h-2zm14 8v18h-18v-18zm-36 24h36v4h-36zm36-2h-36v-2h36zm-28-8h8v4h-8zm-9 4c-.552 0-1 .448-1 1v5h-17.367l2.75-22h15.234l2 16zm-13-25c0-6.065 4.935-11 11-11s11 4.935 11 11c0 4.658-2.912 8.748-7.202 10.321l-.806-6.445c-.062-.501-.488-.876-.992-.876h-12.578c-.275-.972-.422-1.977-.422-3zm12.117 5 .25 2h-14.734l.25-2zm-20.117-3v-4h3.291c.48 0 .893-.342.982-.813.386-2.031 1.166-3.92 2.32-5.615.271-.397.22-.93-.12-1.27l-2.323-2.323 2.829-2.829 2.323 2.323c.34.34.873.39 1.27.12 1.695-1.154 3.584-1.934 5.615-2.32.471-.089.813-.502.813-.982v-3.291h4v3.291c0 .48.342.893.813.982 2.031.386 3.92 1.166 5.615 2.32.397.271.931.22 1.27-.12l2.323-2.323 2.829 2.829-2.323 2.323c-.34.339-.39.873-.12 1.27 1.154 1.695 1.934 3.584 2.32 5.615.089.471.502.813.982.813h3.291v4h-3.291c-.48 0-.893.342-.982.813-.386 2.031-1.166 3.92-2.32 5.615-.271.397-.22.93.12 1.27l2.323 2.323-2.829 2.829-2.323-2.323c-.339-.338-.871-.389-1.27-.12-1.269.864-2.656 1.509-4.126 1.946l-.251-2.005c5.31-1.735 8.949-6.687 8.949-12.348 0-7.168-5.832-13-13-13s-13 5.832-13 13c0 1.018.126 2.022.357 3h-1.357c-.24 0-.459.089-.633.233-.031-.14-.067-.278-.094-.419-.089-.472-.502-.814-.982-.814zm2.383 31h17.617v2h-17.867zm55.617 6h-58v-2h58z"/><path d="m46 37h4c.552 0 1-.448 1-1v-4c0-.552-.448-1-1-1h-4c-.552 0-1 .448-1 1v4c0 .552.448 1 1 1zm1-4h2v2h-2z"/><path d="m54 37h4c.552 0 1-.448 1-1v-4c0-.552-.448-1-1-1h-4c-.552 0-1 .448-1 1v4c0 .552.448 1 1 1zm1-4h2v2h-2z"/><path d="m46 45h4c.552 0 1-.448 1-1v-4c0-.552-.448-1-1-1h-4c-.552 0-1 .448-1 1v4c0 .552.448 1 1 1zm1-4h2v2h-2z"/><path d="m54 45h4c.552 0 1-.448 1-1v-4c0-.552-.448-1-1-1h-4c-.552 0-1 .448-1 1v4c0 .552.448 1 1 1zm1-4h2v2h-2z"/><path d="m58 3c-1.638 0-3.127.786-4.056 2.096-.315-.064-.631-.096-.944-.096-2.452 0-4.498 1.774-4.92 4.107-1.764.416-3.08 2.004-3.08 3.893 0 2.206 1.794 4 4 4 1.449 0 2.77-.802 3.468-2.033 1.852.232 3.56-.611 4.588-2.062.315.063.631.095.944.095 2.757 0 5-2.243 5-5s-2.243-5-5-5zm-1.055 7.796c-.484-.184-1.029.034-1.254.5-.509 1.051-1.54 1.704-2.691 1.704-.252 0-.521-.044-.844-.14-.256-.075-.532-.046-.766.083s-.406.345-.479.602c-.244.856-1.031 1.455-1.911 1.455-1.103 0-2-.897-2-2s.897-2 2-2c.552 0 1-.448 1-1 0-1.654 1.346-3 3-3 .343 0 .698.068 1.055.204.485.184 1.029-.034 1.254-.5.508-1.051 1.54-1.704 2.691-1.704 1.654 0 3 1.346 3 3 0 1.997-1.974 3.584-4.055 2.796z"/></svg>